<svg xmlns="http://www.w3.org/2000/svg" xmlns:xlink="http://www.w3.org/1999/xlink" width="80" zoomAndPan="magnify" viewBox="0 0 60 30.000001" height="40" preserveAspectRatio="xMidYMid meet" version="1.0"><defs><g/><clipPath id="03dbd030fa"><path d="M 9 15 L 14 15 L 14 20.324219 L 9 20.324219 Z M 9 15 " clip-rule="nonzero"/></clipPath><clipPath id="9d666ad79b"><path d="M 3.871094 15 L 9 15 L 9 20.324219 L 3.871094 20.324219 Z M 3.871094 15 " clip-rule="nonzero"/></clipPath><clipPath id="fbefe76638"><path d="M 9 8.710938 L 14 8.710938 L 14 15 L 9 15 Z M 9 8.710938 " clip-rule="nonzero"/></clipPath><clipPath id="dea2c35f9f"><path d="M 3.871094 8.710938 L 9 8.710938 L 9 15 L 3.871094 15 Z M 3.871094 8.710938 " clip-rule="nonzero"/></clipPath></defs><g fill="#ffffff" fill-opacity="1"><g transform="translate(15.782231, 16.127968)"><g><path d="M 4.3125 -1.105469 C 4.3125 -1.625 3.820312 -2.046875 3.300781 -2.046875 L 1.253906 -2.046875 L 1.253906 -1.421875 L 3.300781 -1.421875 C 3.476562 -1.421875 3.664062 -1.28125 3.664062 -1.105469 L 3.664062 -0.941406 C 3.664062 -0.734375 3.542969 -0.632812 3.300781 -0.632812 L 1.253906 -0.632812 C 1.015625 -0.632812 0.894531 -0.734375 0.894531 -0.941406 L 0.894531 -2.539062 C 0.894531 -2.707031 1.078125 -2.851562 1.253906 -2.851562 L 4.261719 -2.851562 L 4.261719 -3.472656 L 1.253906 -3.472656 C 0.738281 -3.472656 0.238281 -3.054688 0.238281 -2.539062 L 0.238281 -0.941406 C 0.238281 -0.390625 0.691406 -0.00390625 1.253906 -0.00390625 L 3.300781 -0.00390625 C 3.859375 -0.00390625 4.3125 -0.390625 4.3125 -0.941406 Z M 4.3125 -1.105469 "/></g></g></g><g fill="#ffffff" fill-opacity="1"><g transform="translate(20.463041, 16.127968)"><g><path d="M 4.292969 -2.539062 C 4.292969 -3.050781 3.800781 -3.472656 3.285156 -3.472656 L 0.28125 -3.472656 L 0.28125 -2.851562 L 3.285156 -2.851562 C 3.457031 -2.851562 3.644531 -2.707031 3.644531 -2.539062 L 3.644531 -0.941406 C 3.644531 -0.734375 3.523438 -0.632812 3.285156 -0.632812 L 1.234375 -0.632812 C 0.996094 -0.632812 0.875 -0.734375 0.875 -0.941406 L 0.875 -1.105469 C 0.875 -1.28125 1.058594 -1.421875 1.234375 -1.421875 L 3.285156 -1.421875 L 3.285156 -2.046875 L 1.234375 -2.046875 C 0.726562 -2.046875 0.222656 -1.632812 0.222656 -1.105469 L 0.222656 -0.941406 C 0.222656 -0.390625 0.683594 -0.00390625 1.234375 -0.00390625 L 3.285156 -0.00390625 C 3.839844 -0.00390625 4.292969 -0.390625 4.292969 -0.941406 Z M 4.292969 -2.539062 "/></g></g></g><g fill="#ffffff" fill-opacity="1"><g transform="translate(25.14385, 16.127968)"><g><path d="M 5.832031 -2.539062 C 5.832031 -3.089844 5.371094 -3.472656 4.820312 -3.472656 L 4.371094 -3.472656 C 3.796875 -3.472656 3.359375 -3.0625 3.359375 -2.539062 L 3.355469 -0.941406 C 3.355469 -0.734375 3.234375 -0.632812 2.996094 -0.632812 C 2.75 -0.632812 2.625 -0.734375 2.625 -0.941406 L 2.636719 -2.539062 C 2.640625 -3.089844 2.160156 -3.472656 1.621094 -3.472656 L 1.164062 -3.472656 C 0.617188 -3.472656 0.15625 -3.09375 0.15625 -2.539062 L 0.15625 -0.00390625 L 0.8125 -0.00390625 L 0.8125 -2.539062 C 0.8125 -2.746094 0.929688 -2.851562 1.164062 -2.851562 L 1.621094 -2.851562 C 1.855469 -2.851562 1.976562 -2.746094 1.976562 -2.539062 L 1.976562 -0.941406 C 1.976562 -0.378906 2.433594 -0.00390625 2.996094 -0.00390625 C 3.542969 -0.00390625 4.007812 -0.398438 4.007812 -0.941406 L 4.011719 -2.539062 C 4.011719 -2.746094 4.132812 -2.851562 4.371094 -2.851562 L 4.820312 -2.851562 C 5.058594 -2.851562 5.179688 -2.746094 5.179688 -2.539062 L 5.179688 -0.00390625 L 5.832031 -0.00390625 Z M 5.832031 -2.539062 "/></g></g></g><g fill="#ffffff" fill-opacity="1"><g transform="translate(31.459068, 16.127968)"><g><path d="M 4.246094 -2.535156 C 4.246094 -3.089844 3.773438 -3.46875 3.234375 -3.46875 L 1.179688 -3.46875 C 0.644531 -3.46875 0.164062 -3.09375 0.164062 -2.535156 L 0.164062 -0.941406 C 0.164062 -0.40625 0.667969 -0.00390625 1.179688 -0.00390625 L 4.1875 -0.00390625 L 4.1875 -0.625 L 1.179688 -0.625 C 1.003906 -0.625 0.820312 -0.769531 0.820312 -0.941406 L 0.820312 -2.535156 C 0.820312 -2.742188 0.941406 -2.847656 1.179688 -2.847656 L 3.234375 -2.847656 C 3.472656 -2.847656 3.59375 -2.742188 3.59375 -2.535156 L 3.59375 -2.363281 C 3.59375 -2.195312 3.402344 -2.054688 3.234375 -2.054688 L 1.179688 -2.054688 L 1.179688 -1.429688 L 3.234375 -1.429688 C 3.753906 -1.429688 4.246094 -1.851562 4.246094 -2.363281 Z M 4.246094 -2.535156 "/></g></g></g><g fill="#ffffff" fill-opacity="1"><g transform="translate(36.139878, 16.127968)"><g><path d="M 4.269531 -3.472656 L 0.238281 -3.472656 L 0.238281 -2.851562 L 1.917969 -2.851562 L 1.917969 -0.00390625 L 2.566406 -0.00390625 L 2.566406 -2.851562 L 4.269531 -2.851562 Z M 4.269531 -3.472656 "/></g></g></g><g fill="#ffffff" fill-opacity="1"><g transform="translate(40.757823, 16.127968)"><g><path d="M 4.246094 -2.535156 C 4.246094 -3.089844 3.773438 -3.46875 3.234375 -3.46875 L 1.179688 -3.46875 C 0.644531 -3.46875 0.164062 -3.09375 0.164062 -2.535156 L 0.164062 -0.941406 C 0.164062 -0.40625 0.667969 -0.00390625 1.179688 -0.00390625 L 4.1875 -0.00390625 L 4.1875 -0.625 L 1.179688 -0.625 C 1.003906 -0.625 0.820312 -0.769531 0.820312 -0.941406 L 0.820312 -2.535156 C 0.820312 -2.742188 0.941406 -2.847656 1.179688 -2.847656 L 3.234375 -2.847656 C 3.472656 -2.847656 3.59375 -2.742188 3.59375 -2.535156 L 3.59375 -2.363281 C 3.59375 -2.195312 3.402344 -2.054688 3.234375 -2.054688 L 1.179688 -2.054688 L 1.179688 -1.429688 L 3.234375 -1.429688 C 3.753906 -1.429688 4.246094 -1.851562 4.246094 -2.363281 Z M 4.246094 -2.535156 "/></g></g></g><g fill="#ffffff" fill-opacity="1"><g transform="translate(45.438633, 16.127968)"><g><path d="M 4.304688 -0.632812 L 1.253906 -0.632812 C 1.015625 -0.632812 0.894531 -0.734375 0.894531 -0.941406 L 0.894531 -2.539062 C 0.894531 -2.707031 1.078125 -2.851562 1.253906 -2.851562 L 4.304688 -2.851562 L 4.304688 -3.472656 L 1.253906 -3.472656 C 0.738281 -3.472656 0.238281 -3.042969 0.238281 -2.539062 L 0.238281 -0.941406 C 0.238281 -0.390625 0.699219 -0.00390625 1.253906 -0.00390625 L 4.304688 -0.00390625 Z M 4.304688 -0.632812 "/></g></g></g><g fill="#ffffff" fill-opacity="1"><g transform="translate(50.085588, 16.127968)"><g><path d="M 4.183594 -3.472656 L 3.535156 -3.472656 L 3.535156 -2.054688 L 1 -2.054688 L 1 -1.417969 L 3.535156 -1.417969 L 3.535156 -0.00390625 L 4.183594 -0.00390625 Z M 0.796875 -3.472656 L 0.144531 -3.472656 L 0.144531 -0.00390625 L 0.796875 -0.00390625 Z M 0.796875 -3.472656 "/></g></g></g><g clip-path="url(#03dbd030fa)"><path fill="#f94151" d="M 13.988281 15.011719 L 9.367188 17.683594 L 9.367188 20.292969 L 13.988281 17.617188 Z M 13.988281 15.011719 " fill-opacity="1" fill-rule="nonzero"/></g><g clip-path="url(#9d666ad79b)"><path fill="#f94151" d="M 3.871094 15.011719 L 3.871094 17.617188 L 8.492188 20.292969 L 8.492188 17.683594 Z M 3.871094 15.011719 " fill-opacity="1" fill-rule="nonzero"/></g><g clip-path="url(#fbefe76638)"><path fill="#27c7e1" d="M 13.988281 14.019531 L 13.988281 11.414062 L 9.367188 8.742188 L 9.367188 11.347656 Z M 13.988281 14.019531 " fill-opacity="1" fill-rule="nonzero"/></g><g clip-path="url(#dea2c35f9f)"><path fill="#27c7e1" d="M 8.492188 8.742188 L 3.871094 11.414062 L 3.871094 14.019531 L 8.492188 11.347656 Z M 8.492188 8.742188 " fill-opacity="1" fill-rule="nonzero"/></g><path fill="#ffffff" d="M 13.128906 14.515625 L 8.921875 12.089844 L 4.730469 14.515625 L 8.921875 16.941406 Z M 13.128906 14.515625 " fill-opacity="1" fill-rule="nonzero"/></svg>