<svg xmlns="http://www.w3.org/2000/svg" xmlns:xlink="http://www.w3.org/1999/xlink" width="80" zoomAndPan="magnify" viewBox="0 0 60 30.000001" height="40" preserveAspectRatio="xMidYMid meet" version="1.0"><defs><g/><clipPath id="a4b1db7dc5"><path d="M 8 7.226562 L 15 7.226562 L 15 12 L 8 12 Z M 8 7.226562 " clip-rule="nonzero"/></clipPath><clipPath id="b3e13105ea"><path d="M 6.175781 10 L 16.339844 10 L 16.339844 21.742188 L 6.175781 21.742188 Z M 6.175781 10 " clip-rule="nonzero"/></clipPath></defs><g clip-path="url(#a4b1db7dc5)"><path fill="#ffffff" d="M 14.113281 11.386719 L 13.253906 11.386719 L 13.253906 10.039062 C 13.253906 8.964844 12.378906 8.089844 11.304688 8.089844 C 10.226562 8.089844 9.351562 8.964844 9.351562 10.039062 L 9.351562 11.386719 L 8.496094 11.386719 L 8.496094 10.039062 C 8.496094 8.492188 9.753906 7.230469 11.304688 7.230469 C 12.851562 7.230469 14.113281 8.492188 14.113281 10.039062 Z M 14.113281 11.386719 " fill-opacity="1" fill-rule="nonzero"/></g><g clip-path="url(#b3e13105ea)"><path fill="#5ce1e6" d="M 7.378906 11.816406 L 15.230469 11.816406 L 15.484375 18.007812 L 11.730469 18.007812 L 11.730469 14.902344 L 12.929688 16.101562 L 13.535156 15.496094 L 11.304688 13.265625 L 9.070312 15.496094 L 9.675781 16.101562 L 10.875 14.902344 L 10.875 18.863281 L 16.378906 18.863281 L 16.054688 10.957031 L 6.546875 10.957031 L 6.234375 21.816406 L 11.527344 21.816406 L 11.527344 20.960938 L 7.117188 20.960938 Z M 7.378906 11.816406 " fill-opacity="1" fill-rule="nonzero"/></g><g fill="#ffffff" fill-opacity="1"><g transform="translate(20.741242, 15.512605)"><g><path d="M 3.1875 -4.9375 L 3.1875 -3.953125 L 1.484375 -3.953125 L 1.484375 -2.96875 L 3.109375 -2.96875 L 3.109375 -1.984375 L 1.484375 -1.984375 L 1.484375 -0.984375 L 3.1875 -0.984375 L 3.1875 0 L 0.359375 0 L 0.359375 -4.9375 Z M 3.1875 -4.9375 "/></g></g></g><g fill="#ffffff" fill-opacity="1"><g transform="translate(24.209001, 15.512605)"><g><path d="M 2 -2.296875 C 1.789062 -2.296875 1.613281 -2.21875 1.46875 -2.0625 C 1.332031 -1.914062 1.265625 -1.738281 1.265625 -1.53125 C 1.265625 -1.320312 1.332031 -1.144531 1.46875 -1 C 1.613281 -0.851562 1.789062 -0.78125 2 -0.78125 C 2.09375 -0.78125 2.179688 -0.789062 2.265625 -0.8125 C 2.347656 -0.832031 2.410156 -0.859375 2.453125 -0.890625 L 2.5 -0.921875 L 2.859375 -0.1875 C 2.835938 -0.164062 2.800781 -0.140625 2.75 -0.109375 C 2.695312 -0.078125 2.582031 -0.0351562 2.40625 0.015625 C 2.226562 0.0664062 2.039062 0.09375 1.84375 0.09375 C 1.382812 0.09375 0.984375 -0.0625 0.640625 -0.375 C 0.304688 -0.695312 0.140625 -1.082031 0.140625 -1.53125 C 0.140625 -1.976562 0.304688 -2.359375 0.640625 -2.671875 C 0.984375 -2.992188 1.382812 -3.15625 1.84375 -3.15625 C 2.039062 -3.15625 2.222656 -3.128906 2.390625 -3.078125 C 2.566406 -3.035156 2.691406 -2.988281 2.765625 -2.9375 L 2.859375 -2.875 L 2.5 -2.140625 C 2.375 -2.242188 2.207031 -2.296875 2 -2.296875 Z M 2 -2.296875 "/></g></g></g><g fill="#ffffff" fill-opacity="1"><g transform="translate(27.144638, 15.512605)"><g><path d="M 0.640625 -0.359375 C 0.304688 -0.660156 0.140625 -1.050781 0.140625 -1.53125 C 0.140625 -2.007812 0.316406 -2.398438 0.671875 -2.703125 C 1.023438 -3.003906 1.460938 -3.15625 1.984375 -3.15625 C 2.503906 -3.15625 2.9375 -3 3.28125 -2.6875 C 3.632812 -2.382812 3.8125 -2 3.8125 -1.53125 C 3.8125 -1.0625 3.640625 -0.671875 3.296875 -0.359375 C 2.953125 -0.0546875 2.515625 0.09375 1.984375 0.09375 C 1.429688 0.09375 0.984375 -0.0546875 0.640625 -0.359375 Z M 1.46875 -2.046875 C 1.332031 -1.910156 1.265625 -1.738281 1.265625 -1.53125 C 1.265625 -1.320312 1.328125 -1.148438 1.453125 -1.015625 C 1.585938 -0.878906 1.765625 -0.8125 1.984375 -0.8125 C 2.191406 -0.8125 2.359375 -0.878906 2.484375 -1.015625 C 2.617188 -1.148438 2.6875 -1.320312 2.6875 -1.53125 C 2.6875 -1.738281 2.617188 -1.910156 2.484375 -2.046875 C 2.347656 -2.179688 2.179688 -2.25 1.984375 -2.25 C 1.773438 -2.25 1.601562 -2.179688 1.46875 -2.046875 Z M 1.46875 -2.046875 "/></g></g></g><g fill="#ffffff" fill-opacity="1"><g transform="translate(31.096684, 15.512605)"><g><path d="M 0.359375 0 L 0.359375 -3.0625 L 1.421875 -3.0625 L 1.421875 -2.75 L 1.4375 -2.75 C 1.707031 -3.019531 2 -3.15625 2.3125 -3.15625 C 2.53125 -3.15625 2.738281 -3.109375 2.9375 -3.015625 C 3.132812 -2.929688 3.28125 -2.789062 3.375 -2.59375 C 3.6875 -2.96875 4.03125 -3.15625 4.40625 -3.15625 C 4.726562 -3.15625 5.003906 -3.0625 5.234375 -2.875 C 5.472656 -2.695312 5.59375 -2.410156 5.59375 -2.015625 L 5.59375 0 L 4.53125 0 L 4.53125 -1.734375 C 4.53125 -1.898438 4.484375 -2.035156 4.390625 -2.140625 C 4.304688 -2.253906 4.175781 -2.3125 4 -2.3125 C 3.84375 -2.3125 3.722656 -2.265625 3.640625 -2.171875 C 3.554688 -2.078125 3.507812 -1.960938 3.5 -1.828125 L 3.5 0 L 2.453125 0 L 2.453125 -1.734375 C 2.453125 -1.898438 2.40625 -2.035156 2.3125 -2.140625 C 2.21875 -2.253906 2.082031 -2.3125 1.90625 -2.3125 C 1.738281 -2.3125 1.613281 -2.257812 1.53125 -2.15625 C 1.457031 -2.050781 1.421875 -1.929688 1.421875 -1.796875 L 1.421875 0 Z M 0.359375 0 "/></g></g></g><g fill="#ffffff" fill-opacity="1"><g transform="translate(36.985892, 15.512605)"><g><path d="M 2.171875 -5.03125 C 2.441406 -5.03125 2.703125 -4.988281 2.953125 -4.90625 C 3.210938 -4.832031 3.40625 -4.757812 3.53125 -4.6875 L 3.703125 -4.5625 L 3.25 -3.65625 C 3.21875 -3.6875 3.171875 -3.71875 3.109375 -3.75 C 3.046875 -3.789062 2.925781 -3.84375 2.75 -3.90625 C 2.570312 -3.96875 2.40625 -4 2.25 -4 C 2.0625 -4 1.914062 -3.957031 1.8125 -3.875 C 1.71875 -3.800781 1.671875 -3.695312 1.671875 -3.5625 C 1.671875 -3.488281 1.691406 -3.421875 1.734375 -3.359375 C 1.785156 -3.304688 1.867188 -3.25 1.984375 -3.1875 C 2.097656 -3.125 2.195312 -3.070312 2.28125 -3.03125 C 2.375 -2.988281 2.515625 -2.925781 2.703125 -2.84375 C 3.015625 -2.707031 3.285156 -2.519531 3.515625 -2.28125 C 3.742188 -2.050781 3.859375 -1.789062 3.859375 -1.5 C 3.859375 -1.21875 3.804688 -0.96875 3.703125 -0.75 C 3.597656 -0.539062 3.457031 -0.375 3.28125 -0.25 C 3.101562 -0.132812 2.90625 -0.0507812 2.6875 0 C 2.476562 0.0625 2.25 0.09375 2 0.09375 C 1.78125 0.09375 1.566406 0.0664062 1.359375 0.015625 C 1.148438 -0.0234375 0.972656 -0.078125 0.828125 -0.140625 C 0.691406 -0.203125 0.566406 -0.265625 0.453125 -0.328125 C 0.347656 -0.398438 0.269531 -0.457031 0.21875 -0.5 L 0.140625 -0.5625 L 0.703125 -1.515625 C 0.742188 -1.472656 0.804688 -1.421875 0.890625 -1.359375 C 0.972656 -1.296875 1.117188 -1.210938 1.328125 -1.109375 C 1.546875 -1.003906 1.738281 -0.953125 1.90625 -0.953125 C 2.382812 -0.953125 2.625 -1.113281 2.625 -1.4375 C 2.625 -1.5 2.601562 -1.5625 2.5625 -1.625 C 2.53125 -1.6875 2.472656 -1.742188 2.390625 -1.796875 C 2.304688 -1.859375 2.226562 -1.90625 2.15625 -1.9375 C 2.09375 -1.96875 1.984375 -2.019531 1.828125 -2.09375 C 1.679688 -2.164062 1.578125 -2.21875 1.515625 -2.25 C 1.210938 -2.394531 0.976562 -2.578125 0.8125 -2.796875 C 0.644531 -3.023438 0.5625 -3.265625 0.5625 -3.515625 C 0.5625 -3.960938 0.722656 -4.328125 1.046875 -4.609375 C 1.378906 -4.890625 1.753906 -5.03125 2.171875 -5.03125 Z M 2.171875 -5.03125 "/></g></g></g><g fill="#ffffff" fill-opacity="1"><g transform="translate(41.003707, 15.512605)"><g><path d="M 0.53125 -3.0625 L 0.53125 -4.21875 L 1.59375 -4.21875 L 1.59375 -3.0625 L 2.25 -3.0625 L 2.25 -2.265625 L 1.59375 -2.265625 L 1.59375 -1.28125 C 1.59375 -1 1.675781 -0.859375 1.84375 -0.859375 C 1.875 -0.859375 1.910156 -0.863281 1.953125 -0.875 C 2.003906 -0.894531 2.039062 -0.914062 2.0625 -0.9375 L 2.09375 -0.953125 L 2.359375 -0.109375 C 2.128906 0.0234375 1.867188 0.09375 1.578125 0.09375 C 1.378906 0.09375 1.207031 0.0546875 1.0625 -0.015625 C 0.925781 -0.0859375 0.820312 -0.179688 0.75 -0.296875 C 0.675781 -0.410156 0.617188 -0.53125 0.578125 -0.65625 C 0.546875 -0.789062 0.53125 -0.929688 0.53125 -1.078125 L 0.53125 -2.265625 L 0.09375 -2.265625 L 0.09375 -3.0625 Z M 0.53125 -3.0625 "/></g></g></g><g fill="#ffffff" fill-opacity="1"><g transform="translate(43.36537, 15.512605)"><g><path d="M 0.640625 -0.359375 C 0.304688 -0.660156 0.140625 -1.050781 0.140625 -1.53125 C 0.140625 -2.007812 0.316406 -2.398438 0.671875 -2.703125 C 1.023438 -3.003906 1.460938 -3.15625 1.984375 -3.15625 C 2.503906 -3.15625 2.9375 -3 3.28125 -2.6875 C 3.632812 -2.382812 3.8125 -2 3.8125 -1.53125 C 3.8125 -1.0625 3.640625 -0.671875 3.296875 -0.359375 C 2.953125 -0.0546875 2.515625 0.09375 1.984375 0.09375 C 1.429688 0.09375 0.984375 -0.0546875 0.640625 -0.359375 Z M 1.46875 -2.046875 C 1.332031 -1.910156 1.265625 -1.738281 1.265625 -1.53125 C 1.265625 -1.320312 1.328125 -1.148438 1.453125 -1.015625 C 1.585938 -0.878906 1.765625 -0.8125 1.984375 -0.8125 C 2.191406 -0.8125 2.359375 -0.878906 2.484375 -1.015625 C 2.617188 -1.148438 2.6875 -1.320312 2.6875 -1.53125 C 2.6875 -1.738281 2.617188 -1.910156 2.484375 -2.046875 C 2.347656 -2.179688 2.179688 -2.25 1.984375 -2.25 C 1.773438 -2.25 1.601562 -2.179688 1.46875 -2.046875 Z M 1.46875 -2.046875 "/></g></g></g><g fill="#ffffff" fill-opacity="1"><g transform="translate(47.317416, 15.512605)"><g><path d="M 0.359375 0 L 0.359375 -3.0625 L 1.421875 -3.0625 L 1.421875 -2.625 L 1.4375 -2.625 C 1.4375 -2.644531 1.445312 -2.664062 1.46875 -2.6875 C 1.488281 -2.707031 1.523438 -2.75 1.578125 -2.8125 C 1.640625 -2.875 1.703125 -2.925781 1.765625 -2.96875 C 1.835938 -3.019531 1.925781 -3.0625 2.03125 -3.09375 C 2.144531 -3.132812 2.257812 -3.15625 2.375 -3.15625 C 2.488281 -3.15625 2.597656 -3.140625 2.703125 -3.109375 C 2.816406 -3.078125 2.898438 -3.046875 2.953125 -3.015625 L 3.046875 -2.96875 L 2.59375 -2.078125 C 2.46875 -2.179688 2.285156 -2.234375 2.046875 -2.234375 C 1.921875 -2.234375 1.8125 -2.207031 1.71875 -2.15625 C 1.625 -2.101562 1.554688 -2.035156 1.515625 -1.953125 C 1.484375 -1.867188 1.457031 -1.796875 1.4375 -1.734375 C 1.425781 -1.679688 1.421875 -1.640625 1.421875 -1.609375 L 1.421875 0 Z M 0.359375 0 "/></g></g></g><g fill="#ffffff" fill-opacity="1"><g transform="translate(50.294905, 15.512605)"><g><path d="M 3.46875 -1.390625 L 1.234375 -1.390625 C 1.234375 -1.171875 1.300781 -1.007812 1.4375 -0.90625 C 1.582031 -0.800781 1.738281 -0.75 1.90625 -0.75 C 2.070312 -0.75 2.203125 -0.769531 2.296875 -0.8125 C 2.398438 -0.863281 2.519531 -0.957031 2.65625 -1.09375 L 3.421875 -0.71875 C 3.097656 -0.175781 2.566406 0.09375 1.828125 0.09375 C 1.359375 0.09375 0.957031 -0.0625 0.625 -0.375 C 0.300781 -0.695312 0.140625 -1.082031 0.140625 -1.53125 C 0.140625 -1.976562 0.300781 -2.359375 0.625 -2.671875 C 0.957031 -2.992188 1.359375 -3.15625 1.828125 -3.15625 C 2.316406 -3.15625 2.710938 -3.015625 3.015625 -2.734375 C 3.316406 -2.453125 3.46875 -2.050781 3.46875 -1.53125 C 3.46875 -1.457031 3.46875 -1.410156 3.46875 -1.390625 Z M 1.265625 -1.96875 L 2.4375 -1.96875 C 2.414062 -2.132812 2.351562 -2.257812 2.25 -2.34375 C 2.144531 -2.425781 2.015625 -2.46875 1.859375 -2.46875 C 1.679688 -2.46875 1.539062 -2.421875 1.4375 -2.328125 C 1.332031 -2.242188 1.273438 -2.125 1.265625 -1.96875 Z M 1.265625 -1.96875 "/></g></g></g></svg>